<svg xmlns="http://www.w3.org/2000/svg" width="206.713" height="212.713" viewBox="0 0 206.713 212.713"><defs><style>.a,.b{fill:none;}.a{stroke:#fd5d08;stroke-linecap:round;stroke-width:30px;}.c,.d{stroke:none;}.d{fill:#082eff;}</style></defs><g transform="translate(-431 12.713)"><path class="a" d="M52.281,0,0,52.281" transform="translate(564.219 8.5)"/><g class="b" transform="translate(431 38)"><path class="c" d="M81,0A81,81,0,1,1,0,81,81,81,0,0,1,81,0Z"/><path class="d" d="M 81 30 C 52.87850189208984 30 30 52.87850189208984 30 81 C 30 109.1214981079102 52.87850189208984 132 81 132 C 109.1214981079102 132 132 109.1214981079102 132 81 C 132 52.87850189208984 109.1214981079102 30 81 30 M 81 0 C 125.7350463867188 0 162 36.26495361328125 162 81 C 162 125.7350463867188 125.7350463867188 162 81 162 C 36.26495361328125 162 0 125.7350463867188 0 81 C 0 36.26495361328125 36.26495361328125 0 81 0 Z"/></g></g></svg>